<?xml version="1.0" encoding="UTF-8" standalone="no"?>
<!-- Created with Inkscape (http://www.inkscape.org/) -->

<svg
   width="32"
   height="32"
   viewBox="0 0 8.4666664 8.4666669"
   version="1.1"
   id="svg5"
   inkscape:version="1.1.2 (1:1.1+202202050950+0a00cf5339)"
   sodipodi:docname="menu.svg"
   xmlns:inkscape="http://www.inkscape.org/namespaces/inkscape"
   xmlns:sodipodi="http://sodipodi.sourceforge.net/DTD/sodipodi-0.dtd"
   xmlns="http://www.w3.org/2000/svg"
   xmlns:svg="http://www.w3.org/2000/svg">
  <sodipodi:namedview
     id="namedview7"
     pagecolor="#ffffff"
     bordercolor="#666666"
     borderopacity="1.0"
     inkscape:pageshadow="2"
     inkscape:pageopacity="0.0"
     inkscape:pagecheckerboard="0"
     inkscape:document-units="mm"
     showgrid="false"
     units="px"
     inkscape:zoom="1.69"
     inkscape:cx="70.414201"
     inkscape:cy="70.118343"
     inkscape:window-width="1920"
     inkscape:window-height="1011"
     inkscape:window-x="0"
     inkscape:window-y="0"
     inkscape:window-maximized="1"
     inkscape:current-layer="layer1" />
  <defs
     id="defs2" />
  <g
     inkscape:label="Layer 1"
     inkscape:groupmode="layer"
     id="layer1">
    <g
       id="g827"
       transform="matrix(0.81151302,0,0,0.81151302,0.7979282,-17.235138)"
       style="fill:#808080">
      <path
         id="rect843"
         style="fill-opacity:0.999892;stroke-width:1.56827;paint-order:markers fill stroke;fill:#808080"
         d="m 1.2987542,22.828619 h 5.8691583 c 0.4127548,0 0.7450447,0.33229 0.7450447,0.745045 0,0.412754 -0.3322899,0.745044 -0.7450447,0.745044 H 1.2987542 c -0.41275475,0 -0.74504469,-0.33229 -0.74504469,-0.745044 0,-0.412755 0.33228994,-0.745045 0.74504469,-0.745045 z" />
      <path
         id="rect843-6"
         style="fill-opacity:0.999892;stroke-width:1.56827;paint-order:markers fill stroke;fill:#808080"
         d="m 1.2987542,28.59103 h 5.8691583 c 0.4127548,0 0.7450447,0.33229 0.7450447,0.745045 0,0.412755 -0.3322899,0.745045 -0.7450447,0.745045 H 1.2987542 c -0.41275475,0 -0.74504469,-0.33229 -0.74504469,-0.745045 0,-0.412755 0.33228994,-0.745045 0.74504469,-0.745045 z" />
      <path
         id="rect843-3"
         style="fill-opacity:0.999892;stroke-width:1.56827;paint-order:markers fill stroke;fill:#808080"
         d="m 1.2987542,25.710367 h 5.8691583 c 0.4127548,0 0.7450447,0.33229 0.7450447,0.745045 0,0.412755 -0.3322899,0.745045 -0.7450447,0.745045 H 1.2987542 c -0.41275475,0 -0.74504469,-0.33229 -0.74504469,-0.745045 0,-0.412755 0.33228994,-0.745045 0.74504469,-0.745045 z" />
    </g>
  </g>
</svg>
